<?xml version="1.0" encoding="utf-8"?>
<!-- Generator: Adobe Illustrator 25.0.0, SVG Export Plug-In . SVG Version: 6.00 Build 0)  -->
<svg version="1.1" id="Logo_Remake" xmlns="http://www.w3.org/2000/svg" xmlns:xlink="http://www.w3.org/1999/xlink" x="0px"
	 y="0px" viewBox="0 0 250 250" style="enable-background:new 0 0 250 250;" xml:space="preserve">
<style type="text/css">
	.st0{fill:#3A3C47;}
	.st1{opacity:0.5;fill:#D1D3D4;}
	.st2{fill:#D1D3D4;}
	.st3{fill:#FFFFFF;}
</style>
<rect id="Background" class="st0" width="250" height="250"/>
<g id="Logo">
	
		<rect id="Stripe_2" x="91.3" y="123.9" transform="matrix(0.7071 -0.7071 0.7071 0.7071 -76.4037 114.7992)" class="st1" width="18.2" height="51.5"/>
	
		<rect id="Stripe_1" x="78.4" y="136.8" transform="matrix(0.7071 -0.7071 0.7071 0.7071 -89.2672 109.471)" class="st2" width="18.2" height="51.5"/>
	<path id="Snake" class="st3" d="M132.1,44.2c-3.9-3.9-10.3-3.9-14.2,0l-73.7,73.7c-3.9,3.9-3.9,10.3,0,14.2l18.6,18.6L125,88.6
		l36.4,36.4l-62.1,62.1l18.6,18.6c3.9,3.9,10.3,3.9,14.2,0l73.7-73.7c3.9-3.9,3.9-10.3,0-14.2L132.1,44.2z M134.1,190.2l-6.1,6.1
		c-1.7,1.7-4.4,1.7-6.1,0l-6.1-6.1c-1.7-1.7-1.7-4.4,0-6.1l6.1-6.1c1.7-1.7,4.4-1.7,6.1,0l6.1,6.1
		C135.8,185.8,135.8,188.5,134.1,190.2z"/>
</g>
</svg>
