<?xml version="1.0" encoding="UTF-8"?>
<!-- Created with Inkscape (http://www.inkscape.org/) -->
<svg width="1e3" height="1e3" version="1.1" viewBox="0 0 1e3 1e3" xmlns="http://www.w3.org/2000/svg">
  <path
    d="m171.25 343.72v313.78h198.77v-5.8691c-11.316 0-20.504-9.391-20.504-20.947v-262.11c0-8.7772 11.394-19.854 20.492-19.854v-5zm94.373 0.11241v313.6c-14.217 0 0 0.0542-14.217 0.0542l0.1582-313.72c14.059 0 0 0.0641 14.059 0.0641z"
    fill="#7e8794"/>
  <path
    d="m223.69 171.04c-27.189 0-52.438 29.764-52.438 52.734v124.95h200.82 259.51c11.075 0 20.727 11.26 20.727 19.854v262.11c0 12.107-10.985 20.945-20.725 20.945h-260.57-199.77l0.00195 124.36c0 25.444 27.075 52.973 52.436 52.973h553.42c23.153 0 52.736-25.905 52.736-52.973v-552.22c0-24.259-25.094-52.734-52.736-52.734h-553.42zm12.084 518.37h45.496c14.859 0 29.832 18.052 29.832 28.984v45.713c0 12.735-14.973 29.832-29.832 29.832h-45.496c-13.145 0-29.459-17.097-29.459-29.832v-45.713c0-10.933 16.314-28.984 29.459-28.984z"
    fill="white"/>
</svg>
