<?xml version="1.0" encoding="utf-8"?>
<!-- Generator: Adobe Illustrator 25.0.0, SVG Export Plug-In . SVG Version: 6.00 Build 0)  -->
<svg version="1.1" id="Layer_1" xmlns="http://www.w3.org/2000/svg" xmlns:xlink="http://www.w3.org/1999/xlink" x="0px" y="0px"
	 viewBox="0 0 583.5 583.9" style="enable-background:new 0 0 583.5 583.9;" xml:space="preserve">
<style type="text/css">
	.st0{fill:#7E8794;}
	.st1{fill:#FFFFFF;}
</style>
<path class="st0" d="M64.9,372.9l146.6,146.6l92.9-92.9l-2.7-2.7c-5.3,5.3-14,5.2-19.4-0.2L159.8,301.2c-4.1-4.1-4-14.6,0.3-18.9
	l-2.3-2.3L64.9,372.9z M109.1,328.8l146.5,146.5c-6.6,6.6,0,0-6.6,6.7L102.5,335.4C109,328.8,102.5,335.4,109.1,328.8L109.1,328.8z"
	/>
<path class="st1" d="M8.7,267.7C-4,280.4-1.9,306.1,8.9,316.8l58.4,58.4l93.8-93.8l121.3-121.3c5.2-5.2,14.9-4.4,19-0.4l122.5,122.5
	c5.7,5.7,4.7,14.9,0.1,19.5L302.1,423.4l-93.3,93.3l58.1,58.1c11.9,11.9,37.4,12.1,49.3,0.3l258.6-258.6
	c10.8-10.8,12.5-36.7-0.1-49.4l-258-258c-11.3-11.3-36.4-12.9-49.3,0L8.7,267.7L8.7,267.7z M256.6,504.2l21.3-21.3
	c6.9-6.9,22.4-5.5,27.5-0.4l21.4,21.4c6,6,6.9,20.9,0,27.9l-21.3,21.3c-6.1,6.1-21.8,5.8-27.7-0.2l-21.4-21.4
	C251.3,526.4,250.4,510.4,256.6,504.2L256.6,504.2z"/>
</svg>
