<svg version="1.1" xmlns="http://www.w3.org/2000/svg" viewBox="0 0 250 250">
  <style type="text/css">
    .st2 {
      fill: none;
      stroke: #B5B5B6;
      stroke-width: 7;
      stroke-miterlimit: 10;
    }

    .st3 {
      fill: #DCDBDB;
      stroke: #DCDBDB;
      stroke-width: 5;
      stroke-miterlimit: 10;
    }
  </style>
  <g>
    <path fill="#f39237" d="M190.8,197.1H59.2c-15.8,0-28.5-12.8-28.5-28.5V37c0-15.8,12.8-28.5,28.5-28.5h131.6
		      c15.8,0,28.5,12.8,28.5,28.5v131.6C219.3,184.4,206.5,197.1,190.8,197.1z"/>
    <g>
      <path fill="#f9e900" d="M125,102.8H30.7V35.6c0-15,12.1-27.1,27.1-27.1H125V102.8z"/>
      <path fill="#e71d36" d="M190.8,197.1H125v-94.3h94.3v65.8C219.3,184.4,206.5,197.1,190.8,197.1z"/>
    </g>
  </g>
  <g>
    <path fill="#2E4976" d="M189.1,241.5H60.9c-3.8,0-6.8-3.1-6.8-6.8v-9.8c0-3.8,3.1-6.8,6.8-6.8h128.3
		      c3.8,0,6.8,3.1,6.8,6.8v9.8C196,238.5,192.9,241.5,189.1,241.5z"/>
    <path fill="#1E2E48" d="M125,241.5H60.9c-3.8,0-6.8-3.1-6.8-6.8v-9.8c0-3.8,3.1-6.8,6.8-6.8H125V241.5z"/>
  </g>
  <g>
    <g>
      <path class="st2"
            d="M172.2,51.3l0,24.7c-13.5,0-24.7-11.1-24.7-24.7c0-13.5,11.1-24.7,24.7-24.7c13.5,0,24.7,11.1,24.7,24.7H172.2z"/>
      <circle class="st3" cx="172.2" cy="76" r="8.7"/>
    </g>
    <g>
      <path class="st2"
            d="M77.8,145.6l0,24.7c-13.5,0-24.7-11.1-24.7-24.7c0-13.5,11.1-24.7,24.7-24.7s24.7,11.1,24.7,24.7H77.8z"/>
      <circle class="st3" cx="77.8" cy="170.3" r="8.7"/>
    </g>
    <g>
      <path class="st2"
            d="M77.8,51.3l0,24.7c-13.5,0-24.7-11.1-24.7-24.7c0-13.5,11.1-24.7,24.7-24.7s24.7,11.1,24.7,24.7H77.8z"/>
      <circle class="st3" cx="77.8" cy="76" r="8.7"/>
    </g>
    <g>
      <path class="st2"
            d="M172.2,145.6l0,24.7c-13.5,0-24.7-11.1-24.7-24.7c0-13.5,11.1-24.7,24.7-24.7c13.5,0,24.7,11.1,24.7,24.7H172.2z"/>
      <circle class="st3" cx="172.2" cy="170.3" r="8.7"/>
    </g>
  </g>
</svg>
