<svg version="1.1" xmlns="http://www.w3.org/2000/svg" viewBox="0 0 250 250">
  <style type="text/css">
    .st4 {
      fill: #EF3B39;
    }

    .st5 {
      fill: #993333;
    }

    .st8 {
      fill: #996699;
    }

    .st9 {
      fill: #663366;
    }
  </style>
  <g>
    <path fill="#23ce6b" d="M190.8,197.1H59.2c-15.8,0-28.5-12.8-28.5-28.5V37c0-15.8,12.8-28.5,28.5-28.5h131.6
		        c15.8,0,28.5,12.8,28.5,28.5v131.6C219.3,184.4,206.5,197.1,190.8,197.1z"/>
    <g>
      <path fill="#329e7d" d="M125,102.8H30.7V35.6c0-15,12.1-27.1,27.1-27.1H125V102.8z"/>
      <path fill="#329e7d" d="M190.8,197.1H125v-94.3h94.3v65.8C219.3,184.4,206.5,197.1,190.8,197.1z"/>
    </g>
  </g>
  <g>
    <path fill="#2E4976" d="M189.1,241.5H60.9c-3.8,0-6.8-3.1-6.8-6.8v-9.8c0-3.8,3.1-6.8,6.8-6.8h128.3
		      c3.8,0,6.8,3.1,6.8,6.8v9.8C196,238.5,192.9,241.5,189.1,241.5z"/>
    <path fill="#1E2E48" d="M125,241.5H60.9c-3.8,0-6.8-3.1-6.8-6.8v-9.8c0-3.8,3.1-6.8,6.8-6.8H125V241.5z"/>
  </g>
  <g>
    <g>
      <rect class="st4" height="54.9" width="54.9" x="50.4" y="28.2"/>
      <path class="st5" d="M105.3,83.1H50.4v-1.3c0-15.2,12.3-27.5,27.5-27.5h0c15.2,0,27.5,12.3,27.5,27.5V83.1z"/>
    </g>
    <g>
      <rect class="st4" height="54.9" width="54.9" x="144.7" y="123.1"/>
      <path class="st5" d="M199.6,178h-54.9v-1.3c0-15.2,12.3-27.5,27.5-27.5h0c15.2,0,27.5,12.3,27.5,27.5V178z"/>
    </g>
    <g>
      <polygon class="st8" points="77.8,121.8 50.1,176.7 105.5,176.7"/>
      <path class="st9" d="M62.6,152L62.6,152c-5.7,11.3,2.5,24.7,15.2,24.7h0c12.7,0,20.9-13.4,15.2-24.7l0,0
				    C86.8,139.5,68.9,139.5,62.6,152z"/>
    </g>
    <g>
      <polygon class="st8" points="172.2,26.9 144.5,81.8 199.9,81.8"/>
      <path class="st9" d="M156.9,57.1L156.9,57.1c-5.7,11.3,2.5,24.7,15.2,24.7h0c12.7,0,20.9-13.4,15.2-24.7l0,0
				    C181.1,44.6,163.2,44.6,156.9,57.1z"/>
    </g>
  </g>
</svg>
