<svg version="1.1" viewBox="0 0 250 250" xmlns="http://www.w3.org/2000/svg">
  <g>
    <path d="M190.8,197.1H59.2c-15.8,0-28.5-12.8-28.5-28.5V37c0-15.8,12.8-28.5,28.5-28.5h131.6
		      c15.8,0,28.5,12.8,28.5,28.5v131.6C219.3,184.4,206.5,197.1,190.8,197.1z" fill="#2E4976"/>
    <g fill="#1E2E48">
      <path d="M125,102.8H30.7V35.6c0-15,12.1-27.1,27.1-27.1H125V102.8z"/>
      <path d="M190.8,197.1H125v-94.3h94.3v65.8C219.3,184.4,206.5,197.1,190.8,197.1z"/>
    </g>
  </g>
  <g>
    <path d="M189.1,241.5H60.9c-3.8,0-6.8-3.1-6.8-6.8v-9.8c0-3.8,3.1-6.8,6.8-6.8h128.3
		      c3.8,0,6.8,3.1,6.8,6.8v9.8C196,238.5,192.9,241.5,189.1,241.5z" fill="#2E4976"/>
    <path d="M125,241.5H60.9c-3.8,0-6.8-3.1-6.8-6.8v-9.8c0-3.8,3.1-6.8,6.8-6.8H125V241.5z" fill="#1E2E48"/>
  </g>
</svg>
