<svg viewBox="0 0 39.57 8.75" xmlns="http://www.w3.org/2000/svg">
  <defs>
    <style>.cls-1 {
      fill: black;
      opacity: .4;
    }</style>
  </defs>
  <path class="cls-1"
        d="M3.81,8.24A3.62,3.62,0,0,1,1.06,7.12,4.14,4.14,0,0,1,0,4.13a4.35,4.35,0,0,1,1-3A3.52,3.52,0,0,1,3.84,0,3.61,3.61,0,0,1,6.56,1.1,4.1,4.1,0,0,1,7.61,4,4.33,4.33,0,0,1,6.55,7.1,3.58,3.58,0,0,1,3.81,8.24Zm0-1.81a.94.94,0,0,0,.9-.54A5,5,0,0,0,5,3.9C5,2.51,4.6,1.82,3.85,1.82S2.64,2.61,2.64,4.2,3,6.43,3.8,6.43Z"/>
  <path class="cls-1" d="M11.94,2V8.12H9.61V2H8V.12h5.64V2Z"/>
  <path class="cls-1" d="M21.08.12v8H18.62V5H16.75V8.12H14.29v-8h2.46V3.06h1.87V.12Z"/>
  <path class="cls-1" d="M28.48,6.21V8.12h-6v-8h6V2H24.87V3.13h2.92V4.9H24.87V6.21Z"/>
  <path class="cls-1"
        d="M36.57,8.12H33.85L32.68,5.06h-.77V8.12H29.46v-8h4.17a3.25,3.25,0,0,1,2.15.65,2.12,2.12,0,0,1,.76,1.71,2.53,2.53,0,0,1-.28,1.22,2.28,2.28,0,0,1-1.13.93ZM31.91,3.35H33a1.25,1.25,0,0,0,.74-.19A.64.64,0,0,0,34,2.59c0-.51-.31-.77-.94-.77H31.91Z"/>
</svg>
